<?xml version="1.0" encoding="UTF-8" standalone="no"?>
<svg width="128px" height="128px" viewBox="0 0 128 128" version="1.1" xmlns="http://www.w3.org/2000/svg" xmlns:xlink="http://www.w3.org/1999/xlink">
    <!-- Generator: Sketch 3.7.2 (28276) - http://www.bohemiancoding.com/sketch -->
    <title>hstspreload-icon-wide</title>
    <desc>Created with Sketch.</desc>
    <defs>
        <path d="M16,55.9999189 C16,47.1634077 23.1653489,40 31.9978495,40 L26.9957363,40 C35.8335684,40 50.1686508,40 59.0049913,40 L95.9929204,40 C104.833386,40 112,47.1640977 112,55.9999189 L112,112.000081 C112,120.836592 104.843254,128 95.9993079,128 L32.0006921,128 C23.1637539,128 16,120.835902 16,112.000081 L16,55.9999189 Z" id="path-1"></path>
        <mask id="mask-2" maskContentUnits="userSpaceOnUse" maskUnits="objectBoundingBox" x="0" y="0" width="96" height="88" fill="white">
            <use xlink:href="#path-1"></use>
        </mask>
    </defs>
    <g id="Page-1" stroke="none" stroke-width="1" fill="none" fill-rule="evenodd">
        <g id="wide">
            <use id="Rectangle-1" stroke="#18911E" mask="url(#mask-2)" stroke-width="8" fill="#1AC222" xlink:href="#path-1"></use>
            <rect id="Rectangle-2" fill-opacity="0.9" fill="#FFFFFF" x="48" y="72" width="48" height="8"></rect>
            <rect id="Rectangle-2-Copy" fill="#FFFFFF" x="32" y="72" width="8" height="8"></rect>
            <path d="M88,44 C88,44 88,38.8582343 88,32 C88,18.745166 77.254834,8 64,8 C50.745166,8 40,18.745166 40,32 L40,44" id="Oval-3" stroke="#18911E" stroke-width="16"></path>
            <path d="M88,44 C88,44 88,38.8582343 88,32 C88,18.745166 77.254834,8 64,8 C50.745166,8 40,18.745166 40,32 L40,44" id="Oval-3-Copy" stroke="#1AC222" stroke-width="8"></path>
            <rect id="Rectangle-2-Copy-9" fill-opacity="0.9" fill="#FFFFFF" x="48" y="56" width="48" height="8"></rect>
            <rect id="Rectangle-2-Copy-8" fill="#FFFFFF" x="32" y="56" width="8" height="8"></rect>
            <rect id="Rectangle-2-Copy-3" fill-opacity="0.9" fill="#FFFFFF" x="48" y="88" width="48" height="8"></rect>
            <rect id="Rectangle-2-Copy-2" fill="#FFFFFF" x="32" y="88" width="8" height="8"></rect>
            <rect id="Rectangle-2-Copy-5" fill-opacity="0.9" fill="#FFFFFF" x="48" y="104" width="48" height="8"></rect>
            <rect id="Rectangle-2-Copy-4" fill="#FFFFFF" x="32" y="104" width="8" height="8"></rect>
        </g>
    </g>
</svg>